<svg width="20" height="24" viewBox="0 0 20 24" fill="none" xmlns="http://www.w3.org/2000/svg">
<g clip-path="url(#clip0_65_13)">
<path d="M19.3636 8.18242C19.2211 8.29043 16.7052 9.67537 16.7052 12.7549C16.7052 16.3168 19.9066 17.577 20.0025 17.6082C19.9877 17.685 19.4939 19.3339 18.3145 21.0141C17.2629 22.4926 16.1646 23.9688 14.4939 23.9688C12.8231 23.9688 12.3931 23.0207 10.4644 23.0207C8.58477 23.0207 7.91646 24 6.38821 24C4.85995 24 3.79361 22.6319 2.56757 20.9517C1.14742 18.9787 0 15.9136 0 13.0045C0 8.33843 3.10565 5.86379 6.16216 5.86379C7.78624 5.86379 9.14005 6.90549 10.1597 6.90549C11.1302 6.90549 12.6437 5.80138 14.4914 5.80138C15.1916 5.80138 17.7076 5.86379 19.3636 8.18242ZM13.6143 3.82598C14.3784 2.94029 14.9189 1.71137 14.9189 0.482448C14.9189 0.312031 14.9042 0.139214 14.8722 0C13.629 0.0456046 12.1499 0.808881 11.258 1.81938C10.5577 2.59706 9.90418 3.82598 9.90418 5.07171C9.90418 5.25893 9.93612 5.44614 9.95086 5.50615C10.0295 5.52055 10.1572 5.53735 10.285 5.53735C11.4005 5.53735 12.8034 4.80768 13.6143 3.82598Z" fill="white"/>
</g>
<defs>
<clipPath id="clip0_65_13">
<rect width="20" height="24" fill="white"/>
</clipPath>
</defs>
</svg>
